<svg xmlns="http://www.w3.org/2000/svg" viewBox="0 0 1000 1000"><g fill="none" stroke="#726d68" stroke-width="20" transform="translate(10 10)"><line x1="150" x2="-10" y1="140" y2="140"/><line x1="0" x2="0" y1="150" y2="-10"/><line x1="130" x2="290" y1="0" y2="0"/><line x1="290" x2="130" y1="140" y2="140"/><line x1="270" x2="430" y1="0" y2="0"/><line x1="430" x2="270" y1="140" y2="140"/><line x1="410" x2="570" y1="0" y2="0"/><line x1="560" x2="560" y1="-10" y2="150"/><line x1="550" x2="710" y1="0" y2="0"/><line x1="560" x2="560" y1="150" y2="-10"/><line x1="690" x2="850" y1="0" y2="0"/><line x1="850" x2="690" y1="140" y2="140"/><line x1="830" x2="990" y1="0" y2="0"/><line x1="980" x2="980" y1="-10" y2="150"/><line x1="-10" x2="150" y1="140" y2="140"/><line x1="0" x2="0" y1="290" y2="130"/><line x1="130" x2="290" y1="140" y2="140"/><line x1="290" x2="130" y1="280" y2="280"/><line x1="270" x2="430" y1="140" y2="140"/><line x1="420" x2="420" y1="130" y2="290"/><line x1="570" x2="410" y1="280" y2="280"/><line x1="420" x2="420" y1="290" y2="130"/><line x1="700" x2="700" y1="130" y2="290"/><line x1="710" x2="550" y1="280" y2="280"/><line x1="690" x2="850" y1="140" y2="140"/><line x1="700" x2="700" y1="290" y2="130"/><line x1="980" x2="980" y1="130" y2="290"/><line x1="990" x2="830" y1="280" y2="280"/><line x1="150" x2="-10" y1="420" y2="420"/><line x1="0" x2="0" y1="430" y2="270"/><line x1="130" x2="290" y1="280" y2="280"/><line x1="280" x2="280" y1="270" y2="430"/><line x1="420" x2="420" y1="270" y2="430"/><line x1="280" x2="280" y1="430" y2="270"/><line x1="410" x2="570" y1="280" y2="280"/><line x1="560" x2="560" y1="270" y2="430"/><line x1="420" x2="420" y1="430" y2="270"/><line x1="550" x2="710" y1="280" y2="280"/><line x1="560" x2="560" y1="430" y2="270"/><line x1="840" x2="840" y1="270" y2="430"/><line x1="850" x2="690" y1="420" y2="420"/><line x1="830" x2="990" y1="280" y2="280"/><line x1="980" x2="980" y1="270" y2="430"/><line x1="840" x2="840" y1="430" y2="270"/><line x1="-10" x2="150" y1="420" y2="420"/><line x1="0" x2="0" y1="570" y2="410"/><line x1="280" x2="280" y1="410" y2="570"/><line x1="290" x2="130" y1="560" y2="560"/><line x1="420" x2="420" y1="410" y2="570"/><line x1="280" x2="280" y1="570" y2="410"/><line x1="560" x2="560" y1="410" y2="570"/><line x1="420" x2="420" y1="570" y2="410"/><line x1="710" x2="550" y1="560" y2="560"/><line x1="560" x2="560" y1="570" y2="410"/><line x1="690" x2="850" y1="420" y2="420"/><line x1="840" x2="840" y1="410" y2="570"/><line x1="980" x2="980" y1="410" y2="570"/><line x1="840" x2="840" y1="570" y2="410"/><line x1="0" x2="0" y1="710" y2="550"/><line x1="130" x2="290" y1="560" y2="560"/><line x1="280" x2="280" y1="550" y2="710"/><line x1="430" x2="270" y1="700" y2="700"/><line x1="280" x2="280" y1="710" y2="550"/><line x1="570" x2="410" y1="700" y2="700"/><line x1="550" x2="710" y1="560" y2="560"/><line x1="700" x2="700" y1="550" y2="710"/><line x1="710" x2="550" y1="700" y2="700"/><line x1="850" x2="690" y1="700" y2="700"/><line x1="700" x2="700" y1="710" y2="550"/><line x1="980" x2="980" y1="550" y2="710"/><line x1="140" x2="140" y1="690" y2="850"/><line x1="0" x2="0" y1="850" y2="690"/><line x1="290" x2="130" y1="840" y2="840"/><line x1="140" x2="140" y1="850" y2="690"/><line x1="270" x2="430" y1="700" y2="700"/><line x1="430" x2="270" y1="840" y2="840"/><line x1="410" x2="570" y1="700" y2="700"/><line x1="560" x2="560" y1="690" y2="850"/><line x1="550" x2="710" y1="700" y2="700"/><line x1="560" x2="560" y1="850" y2="690"/><line x1="690" x2="850" y1="700" y2="700"/><line x1="850" x2="690" y1="840" y2="840"/><line x1="980" x2="980" y1="690" y2="850"/><line x1="990" x2="830" y1="840" y2="840"/><line x1="150" x2="-10" y1="980" y2="980"/><line x1="0" x2="0" y1="990" y2="830"/><line x1="130" x2="290" y1="840" y2="840"/><line x1="290" x2="130" y1="980" y2="980"/><line x1="270" x2="430" y1="840" y2="840"/><line x1="420" x2="420" y1="830" y2="990"/><line x1="430" x2="270" y1="980" y2="980"/><line x1="570" x2="410" y1="980" y2="980"/><line x1="420" x2="420" y1="990" y2="830"/><line x1="710" x2="550" y1="980" y2="980"/><line x1="690" x2="850" y1="840" y2="840"/><line x1="850" x2="690" y1="980" y2="980"/><line x1="830" x2="990" y1="840" y2="840"/><line x1="980" x2="980" y1="830" y2="990"/></g></svg>