<svg xmlns="http://www.w3.org/2000/svg" width="720" height="1000" viewBox="0 0 720 1000">
<defs>
 <linearGradient id="sky" x1="0" y1="0" x2="0" y2="1"><stop stop-color="#d6c9bf"/><stop offset=".5" stop-color="#82999a"/><stop offset="1" stop-color="#26383d"/></linearGradient>
 <linearGradient id="g"><stop stop-color="#bdd283"/><stop offset="1" stop-color="#375b4c"/></linearGradient>
 <filter id="n"><feTurbulence baseFrequency=".22" numOctaves="4" seed="8"/><feColorMatrix values="1 0 0 0 0 1 0 0 0 0 1 0 0 0 0 0 0 .12 0"/></filter>
</defs>
<rect width="720" height="1000" fill="url(#sky)"/>
<g fill="#28363a" opacity=".7"><path d="M0 406h122v594H0Z"/><path d="M101 294h176v706H101Z"/><path d="M264 365h125v635H264Z"/><path d="M375 238h203v762H375Z"/><path d="M559 330h161v670H559Z"/></g>
<path d="M-20 684 740 558v442H-20Z" fill="#182427"/>
<path d="M-20 643c156-19 231-73 375-63 167 12 245-51 385-51v173c-133-4-255 60-389 43-145-18-236 54-371 59Z" fill="url(#g)"/>
<g stroke="#d4e3a3" stroke-width="7" opacity=".78"><path d="m82 690-30-161M120 670l19-181M229 632l-16-145M332 622l34-194M458 596l-19-167M561 577l50-146M653 565l-11-159"/></g>
<g stroke="#dffaff" stroke-width="3" opacity=".42"><path d="m67 89 17 52"/><path d="m207 52 20 61"/><path d="m379 94 18 55"/><path d="m548 54 20 61"/><path d="m660 112 16 48"/></g>
<rect width="720" height="1000" filter="url(#n)" opacity=".42"/>
<rect x="18" y="18" width="684" height="964" fill="none" stroke="#f6efdc" stroke-opacity=".15"/>
</svg>
