<svg xmlns="http://www.w3.org/2000/svg" viewBox="0 0 1000 1000"><g fill="none" stroke="#726d68" stroke-width="10" transform="translate(5 5)"><line x1="46.25" x2="-5" y1="41.25" y2="41.25"/><line x1="0" x2="0" y1="46.25" y2="-5"/><line x1="36.25" x2="87.5" y1="0" y2="0"/><line x1="87.5" x2="36.25" y1="41.25" y2="41.25"/><line x1="77.5" x2="128.75" y1="0" y2="0"/><line x1="118.75" x2="170" y1="0" y2="0"/><line x1="165" x2="165" y1="-5" y2="46.25"/><line x1="160" x2="211.25" y1="0" y2="0"/><line x1="165" x2="165" y1="46.25" y2="-5"/><line x1="201.25" x2="252.5" y1="0" y2="0"/><line x1="252.5" x2="201.25" y1="41.25" y2="41.25"/><line x1="242.5" x2="293.75" y1="0" y2="0"/><line x1="293.75" x2="242.5" y1="41.25" y2="41.25"/><line x1="283.75" x2="335" y1="0" y2="0"/><line x1="325" x2="376.25" y1="0" y2="0"/><line x1="376.25" x2="325" y1="41.25" y2="41.25"/><line x1="366.25" x2="417.5" y1="0" y2="0"/><line x1="417.5" x2="366.25" y1="41.25" y2="41.25"/><line x1="407.5" x2="458.75" y1="0" y2="0"/><line x1="458.75" x2="407.5" y1="41.25" y2="41.25"/><line x1="448.75" x2="500" y1="0" y2="0"/><line x1="500" x2="448.75" y1="41.25" y2="41.25"/><line x1="490" x2="541.25" y1="0" y2="0"/><line x1="541.25" x2="490" y1="41.25" y2="41.25"/><line x1="531.25" x2="582.5" y1="0" y2="0"/><line x1="582.5" x2="531.25" y1="41.25" y2="41.25"/><line x1="572.5" x2="623.75" y1="0" y2="0"/><line x1="623.75" x2="572.5" y1="41.25" y2="41.25"/><line x1="613.75" x2="665" y1="0" y2="0"/><line x1="665" x2="613.75" y1="41.25" y2="41.25"/><line x1="655" x2="706.25" y1="0" y2="0"/><line x1="701.25" x2="701.25" y1="-5" y2="46.25"/><line x1="696.25" x2="747.5" y1="0" y2="0"/><line x1="701.25" x2="701.25" y1="46.25" y2="-5"/><line x1="737.5" x2="788.75" y1="0" y2="0"/><line x1="778.75" x2="830" y1="0" y2="0"/><line x1="830" x2="778.75" y1="41.25" y2="41.25"/><line x1="820" x2="871.25" y1="0" y2="0"/><line x1="871.25" x2="820" y1="41.25" y2="41.25"/><line x1="861.25" x2="912.5" y1="0" y2="0"/><line x1="912.5" x2="861.25" y1="41.25" y2="41.25"/><line x1="902.5" x2="953.75" y1="0" y2="0"/><line x1="953.75" x2="902.5" y1="41.25" y2="41.25"/><line x1="943.75" x2="995" y1="0" y2="0"/><line x1="990" x2="990" y1="-5" y2="46.25"/><line x1="-5" x2="46.25" y1="41.25" y2="41.25"/><line x1="41.25" x2="41.25" y1="36.25" y2="87.5"/><line x1="0" x2="0" y1="87.5" y2="36.25"/><line x1="36.25" x2="87.5" y1="41.25" y2="41.25"/><line x1="41.25" x2="41.25" y1="87.5" y2="36.25"/><line x1="123.75" x2="123.75" y1="36.25" y2="87.5"/><line x1="128.75" x2="77.5" y1="82.5" y2="82.5"/><line x1="170" x2="118.75" y1="82.5" y2="82.5"/><line x1="123.75" x2="123.75" y1="87.5" y2="36.25"/><line x1="211.25" x2="160" y1="82.5" y2="82.5"/><line x1="201.25" x2="252.5" y1="41.25" y2="41.25"/><line x1="252.5" x2="201.25" y1="82.5" y2="82.5"/><line x1="242.5" x2="293.75" y1="41.25" y2="41.25"/><line x1="288.75" x2="288.75" y1="36.25" y2="87.5"/><line x1="335" x2="283.75" y1="82.5" y2="82.5"/><line x1="288.75" x2="288.75" y1="87.5" y2="36.25"/><line x1="325" x2="376.25" y1="41.25" y2="41.25"/><line x1="371.25" x2="371.25" y1="36.25" y2="87.5"/><line x1="366.25" x2="417.5" y1="41.25" y2="41.25"/><line x1="371.25" x2="371.25" y1="87.5" y2="36.25"/><line x1="407.5" x2="458.75" y1="41.25" y2="41.25"/><line x1="458.75" x2="407.5" y1="82.5" y2="82.5"/><line x1="448.75" x2="500" y1="41.25" y2="41.25"/><line x1="495" x2="495" y1="36.25" y2="87.5"/><line x1="490" x2="541.25" y1="41.25" y2="41.25"/><line x1="495" x2="495" y1="87.5" y2="36.25"/><line x1="531.25" x2="582.5" y1="41.25" y2="41.25"/><line x1="572.5" x2="623.75" y1="41.25" y2="41.25"/><line x1="618.75" x2="618.75" y1="36.25" y2="87.5"/><line x1="613.75" x2="665" y1="41.25" y2="41.25"/><line x1="618.75" x2="618.75" y1="87.5" y2="36.25"/><line x1="701.25" x2="701.25" y1="36.25" y2="87.5"/><line x1="706.25" x2="655" y1="82.5" y2="82.5"/><line x1="742.5" x2="742.5" y1="36.25" y2="87.5"/><line x1="701.25" x2="701.25" y1="87.5" y2="36.25"/><line x1="788.75" x2="737.5" y1="82.5" y2="82.5"/><line x1="742.5" x2="742.5" y1="87.5" y2="36.25"/><line x1="778.75" x2="830" y1="41.25" y2="41.25"/><line x1="825" x2="825" y1="36.25" y2="87.5"/><line x1="820" x2="871.25" y1="41.25" y2="41.25"/><line x1="825" x2="825" y1="87.5" y2="36.25"/><line x1="861.25" x2="912.5" y1="41.25" y2="41.25"/><line x1="912.5" x2="861.25" y1="82.5" y2="82.5"/><line x1="902.5" x2="953.75" y1="41.25" y2="41.25"/><line x1="948.75" x2="948.75" y1="36.25" y2="87.5"/><line x1="990" x2="990" y1="36.25" y2="87.5"/><line x1="995" x2="943.75" y1="82.5" y2="82.5"/><line x1="948.75" x2="948.75" y1="87.5" y2="36.25"/><line x1="41.25" x2="41.25" y1="77.5" y2="128.75"/><line x1="0" x2="0" y1="128.75" y2="77.5"/><line x1="87.5" x2="36.25" y1="123.75" y2="123.75"/><line x1="41.25" x2="41.25" y1="128.75" y2="77.5"/><line x1="77.5" x2="128.75" y1="82.5" y2="82.5"/><line x1="128.75" x2="77.5" y1="123.75" y2="123.75"/><line x1="118.75" x2="170" y1="82.5" y2="82.5"/><line x1="165" x2="165" y1="77.5" y2="128.75"/><line x1="160" x2="211.25" y1="82.5" y2="82.5"/><line x1="165" x2="165" y1="128.75" y2="77.5"/><line x1="201.25" x2="252.5" y1="82.5" y2="82.5"/><line x1="247.5" x2="247.5" y1="77.5" y2="128.75"/><line x1="247.5" x2="247.5" y1="128.75" y2="77.5"/><line x1="283.75" x2="335" y1="82.5" y2="82.5"/><line x1="330" x2="330" y1="77.5" y2="128.75"/><line x1="335" x2="283.75" y1="123.75" y2="123.75"/><line x1="371.25" x2="371.25" y1="77.5" y2="128.75"/><line x1="330" x2="330" y1="128.75" y2="77.5"/><line x1="412.5" x2="412.5" y1="77.5" y2="128.75"/><line x1="371.25" x2="371.25" y1="128.75" y2="77.5"/><line x1="407.5" x2="458.75" y1="82.5" y2="82.5"/><line x1="453.75" x2="453.75" y1="77.5" y2="128.75"/><line x1="412.5" x2="412.5" y1="128.75" y2="77.5"/><line x1="500" x2="448.75" y1="123.75" y2="123.75"/><line x1="453.75" x2="453.75" y1="128.75" y2="77.5"/><line x1="536.25" x2="536.25" y1="77.5" y2="128.75"/><line x1="541.25" x2="490" y1="123.75" y2="123.75"/><line x1="577.5" x2="577.5" y1="77.5" y2="128.75"/><line x1="536.25" x2="536.25" y1="128.75" y2="77.5"/><line x1="618.75" x2="618.75" y1="77.5" y2="128.75"/><line x1="623.75" x2="572.5" y1="123.75" y2="123.75"/><line x1="577.5" x2="577.5" y1="128.75" y2="77.5"/><line x1="665" x2="613.75" y1="123.75" y2="123.75"/><line x1="618.75" x2="618.75" y1="128.75" y2="77.5"/><line x1="655" x2="706.25" y1="82.5" y2="82.5"/><line x1="701.25" x2="701.25" y1="77.5" y2="128.75"/><line x1="747.5" x2="696.25" y1="123.75" y2="123.75"/><line x1="701.25" x2="701.25" y1="128.75" y2="77.5"/><line x1="737.5" x2="788.75" y1="82.5" y2="82.5"/><line x1="783.75" x2="783.75" y1="77.5" y2="128.75"/><line x1="825" x2="825" y1="77.5" y2="128.75"/><line x1="783.75" x2="783.75" y1="128.75" y2="77.5"/><line x1="871.25" x2="820" y1="123.75" y2="123.75"/><line x1="825" x2="825" y1="128.75" y2="77.5"/><line x1="861.25" x2="912.5" y1="82.5" y2="82.5"/><line x1="907.5" x2="907.5" y1="77.5" y2="128.75"/><line x1="953.75" x2="902.5" y1="123.75" y2="123.75"/><line x1="907.5" x2="907.5" y1="128.75" y2="77.5"/><line x1="943.75" x2="995" y1="82.5" y2="82.5"/><line x1="990" x2="990" y1="77.5" y2="128.75"/><line x1="0" x2="0" y1="170" y2="118.75"/><line x1="36.25" x2="87.5" y1="123.75" y2="123.75"/><line x1="82.5" x2="82.5" y1="118.75" y2="170"/><line x1="87.5" x2="36.25" y1="165" y2="165"/><line x1="77.5" x2="128.75" y1="123.75" y2="123.75"/><line x1="82.5" x2="82.5" y1="170" y2="118.75"/><line x1="170" x2="118.75" y1="165" y2="165"/><line x1="206.25" x2="206.25" y1="118.75" y2="170"/><line x1="211.25" x2="160" y1="165" y2="165"/><line x1="206.25" x2="206.25" y1="170" y2="118.75"/><line x1="288.75" x2="288.75" y1="118.75" y2="170"/><line x1="293.75" x2="242.5" y1="165" y2="165"/><line x1="283.75" x2="335" y1="123.75" y2="123.75"/><line x1="288.75" x2="288.75" y1="170" y2="118.75"/><line x1="371.25" x2="371.25" y1="118.75" y2="170"/><line x1="417.5" x2="366.25" y1="165" y2="165"/><line x1="371.25" x2="371.25" y1="170" y2="118.75"/><line x1="458.75" x2="407.5" y1="165" y2="165"/><line x1="448.75" x2="500" y1="123.75" y2="123.75"/><line x1="500" x2="448.75" y1="165" y2="165"/><line x1="490" x2="541.25" y1="123.75" y2="123.75"/><line x1="536.25" x2="536.25" y1="118.75" y2="170"/><line x1="541.25" x2="490" y1="165" y2="165"/><line x1="536.25" x2="536.25" y1="170" y2="118.75"/><line x1="572.5" x2="623.75" y1="123.75" y2="123.75"/><line x1="618.75" x2="618.75" y1="118.75" y2="170"/><line x1="613.75" x2="665" y1="123.75" y2="123.75"/><line x1="618.75" x2="618.75" y1="170" y2="118.75"/><line x1="701.25" x2="701.25" y1="118.75" y2="170"/><line x1="706.25" x2="655" y1="165" y2="165"/><line x1="696.25" x2="747.5" y1="123.75" y2="123.75"/><line x1="701.25" x2="701.25" y1="170" y2="118.75"/><line x1="783.75" x2="783.75" y1="118.75" y2="170"/><line x1="788.75" x2="737.5" y1="165" y2="165"/><line x1="825" x2="825" y1="118.75" y2="170"/><line x1="783.75" x2="783.75" y1="170" y2="118.75"/><line x1="820" x2="871.25" y1="123.75" y2="123.75"/><line x1="825" x2="825" y1="170" y2="118.75"/><line x1="912.5" x2="861.25" y1="165" y2="165"/><line x1="902.5" x2="953.75" y1="123.75" y2="123.75"/><line x1="948.75" x2="948.75" y1="118.75" y2="170"/><line x1="953.75" x2="902.5" y1="165" y2="165"/><line x1="990" x2="990" y1="118.75" y2="170"/><line x1="948.75" x2="948.75" y1="170" y2="118.75"/><line x1="0" x2="0" y1="211.25" y2="160"/><line x1="36.25" x2="87.5" y1="165" y2="165"/><line x1="82.5" x2="82.5" y1="160" y2="211.25"/><line x1="128.75" x2="77.5" y1="206.25" y2="206.25"/><line x1="82.5" x2="82.5" y1="211.25" y2="160"/><line x1="118.75" x2="170" y1="165" y2="165"/><line x1="170" x2="118.75" y1="206.25" y2="206.25"/><line x1="160" x2="211.25" y1="165" y2="165"/><line x1="206.25" x2="206.25" y1="160" y2="211.25"/><line x1="247.5" x2="247.5" y1="160" y2="211.25"/><line x1="206.25" x2="206.25" y1="211.25" y2="160"/><line x1="242.5" x2="293.75" y1="165" y2="165"/><line x1="247.5" x2="247.5" y1="211.25" y2="160"/><line x1="330" x2="330" y1="160" y2="211.25"/><line x1="335" x2="283.75" y1="206.25" y2="206.25"/><line x1="371.25" x2="371.25" y1="160" y2="211.25"/><line x1="330" x2="330" y1="211.25" y2="160"/><line x1="366.25" x2="417.5" y1="165" y2="165"/><line x1="371.25" x2="371.25" y1="211.25" y2="160"/><line x1="407.5" x2="458.75" y1="165" y2="165"/><line x1="458.75" x2="407.5" y1="206.25" y2="206.25"/><line x1="448.75" x2="500" y1="165" y2="165"/><line x1="500" x2="448.75" y1="206.25" y2="206.25"/><line x1="490" x2="541.25" y1="165" y2="165"/><line x1="536.25" x2="536.25" y1="160" y2="211.25"/><line x1="577.5" x2="577.5" y1="160" y2="211.25"/><line x1="582.5" x2="531.25" y1="206.25" y2="206.25"/><line x1="536.25" x2="536.25" y1="211.25" y2="160"/><line x1="618.75" x2="618.75" y1="160" y2="211.25"/><line x1="577.5" x2="577.5" y1="211.25" y2="160"/><line x1="660" x2="660" y1="160" y2="211.25"/><line x1="618.75" x2="618.75" y1="211.25" y2="160"/><line x1="655" x2="706.25" y1="165" y2="165"/><line x1="701.25" x2="701.25" y1="160" y2="211.25"/><line x1="660" x2="660" y1="211.25" y2="160"/><line x1="747.5" x2="696.25" y1="206.25" y2="206.25"/><line x1="701.25" x2="701.25" y1="211.25" y2="160"/><line x1="737.5" x2="788.75" y1="165" y2="165"/><line x1="783.75" x2="783.75" y1="160" y2="211.25"/><line x1="825" x2="825" y1="160" y2="211.25"/><line x1="783.75" x2="783.75" y1="211.25" y2="160"/><line x1="871.25" x2="820" y1="206.25" y2="206.25"/><line x1="825" x2="825" y1="211.25" y2="160"/><line x1="861.25" x2="912.5" y1="165" y2="165"/><line x1="907.5" x2="907.5" y1="160" y2="211.25"/><line x1="902.5" x2="953.75" y1="165" y2="165"/><line x1="907.5" x2="907.5" y1="211.25" y2="160"/><line x1="990" x2="990" y1="160" y2="211.25"/><line x1="41.25" x2="41.25" y1="201.25" y2="252.5"/><line x1="46.25" x2="-5" y1="247.5" y2="247.5"/><line x1="0" x2="0" y1="252.5" y2="201.25"/><line x1="87.5" x2="36.25" y1="247.5" y2="247.5"/><line x1="41.25" x2="41.25" y1="252.5" y2="201.25"/><line x1="77.5" x2="128.75" y1="206.25" y2="206.25"/><line x1="123.75" x2="123.75" y1="201.25" y2="252.5"/><line x1="118.75" x2="170" y1="206.25" y2="206.25"/><line x1="123.75" x2="123.75" y1="252.5" y2="201.25"/><line x1="206.25" x2="206.25" y1="201.25" y2="252.5"/><line x1="211.25" x2="160" y1="247.5" y2="247.5"/><line x1="247.5" x2="247.5" y1="201.25" y2="252.5"/><line x1="252.5" x2="201.25" y1="247.5" y2="247.5"/><line x1="206.25" x2="206.25" y1="252.5" y2="201.25"/><line x1="288.75" x2="288.75" y1="201.25" y2="252.5"/><line x1="247.5" x2="247.5" y1="252.5" y2="201.25"/><line x1="283.75" x2="335" y1="206.25" y2="206.25"/><line x1="335" x2="283.75" y1="247.5" y2="247.5"/><line x1="288.75" x2="288.75" y1="252.5" y2="201.25"/><line x1="371.25" x2="371.25" y1="201.25" y2="252.5"/><line x1="376.25" x2="325" y1="247.5" y2="247.5"/><line x1="371.25" x2="371.25" y1="252.5" y2="201.25"/><line x1="407.5" x2="458.75" y1="206.25" y2="206.25"/><line x1="458.75" x2="407.5" y1="247.5" y2="247.5"/><line x1="448.75" x2="500" y1="206.25" y2="206.25"/><line x1="495" x2="495" y1="201.25" y2="252.5"/><line x1="500" x2="448.75" y1="247.5" y2="247.5"/><line x1="495" x2="495" y1="252.5" y2="201.25"/><line x1="531.25" x2="582.5" y1="206.25" y2="206.25"/><line x1="577.5" x2="577.5" y1="201.25" y2="252.5"/><line x1="623.75" x2="572.5" y1="247.5" y2="247.5"/><line x1="577.5" x2="577.5" y1="252.5" y2="201.25"/><line x1="660" x2="660" y1="201.25" y2="252.5"/><line x1="701.25" x2="701.25" y1="201.25" y2="252.5"/><line x1="660" x2="660" y1="252.5" y2="201.25"/><line x1="696.25" x2="747.5" y1="206.25" y2="206.25"/><line x1="701.25" x2="701.25" y1="252.5" y2="201.25"/><line x1="783.75" x2="783.75" y1="201.25" y2="252.5"/><line x1="788.75" x2="737.5" y1="247.5" y2="247.5"/><line x1="830" x2="778.75" y1="247.5" y2="247.5"/><line x1="783.75" x2="783.75" y1="252.5" y2="201.25"/><line x1="820" x2="871.25" y1="206.25" y2="206.25"/><line x1="871.25" x2="820" y1="247.5" y2="247.5"/><line x1="907.5" x2="907.5" y1="201.25" y2="252.5"/><line x1="912.5" x2="861.25" y1="247.5" y2="247.5"/><line x1="948.75" x2="948.75" y1="201.25" y2="252.5"/><line x1="907.5" x2="907.5" y1="252.5" y2="201.25"/><line x1="990" x2="990" y1="201.25" y2="252.5"/><line x1="948.75" x2="948.75" y1="252.5" y2="201.25"/><line x1="-5" x2="46.25" y1="247.5" y2="247.5"/><line x1="0" x2="0" y1="293.75" y2="242.5"/><line x1="36.25" x2="87.5" y1="247.5" y2="247.5"/><line x1="87.5" x2="36.25" y1="288.75" y2="288.75"/><line x1="123.75" x2="123.75" y1="242.5" y2="293.75"/><line x1="128.75" x2="77.5" y1="288.75" y2="288.75"/><line x1="170" x2="118.75" y1="288.75" y2="288.75"/><line x1="123.75" x2="123.75" y1="293.75" y2="242.5"/><line x1="160" x2="211.25" y1="247.5" y2="247.5"/><line x1="211.25" x2="160" y1="288.75" y2="288.75"/><line x1="201.25" x2="252.5" y1="247.5" y2="247.5"/><line x1="247.5" x2="247.5" y1="242.5" y2="293.75"/><line x1="288.75" x2="288.75" y1="242.5" y2="293.75"/><line x1="247.5" x2="247.5" y1="293.75" y2="242.5"/><line x1="283.75" x2="335" y1="247.5" y2="247.5"/><line x1="288.75" x2="288.75" y1="293.75" y2="242.5"/><line x1="325" x2="376.25" y1="247.5" y2="247.5"/><line x1="376.25" x2="325" y1="288.75" y2="288.75"/><line x1="412.5" x2="412.5" y1="242.5" y2="293.75"/><line x1="417.5" x2="366.25" y1="288.75" y2="288.75"/><line x1="407.5" x2="458.75" y1="247.5" y2="247.5"/><line x1="412.5" x2="412.5" y1="293.75" y2="242.5"/><line x1="448.75" x2="500" y1="247.5" y2="247.5"/><line x1="495" x2="495" y1="242.5" y2="293.75"/><line x1="536.25" x2="536.25" y1="242.5" y2="293.75"/><line x1="541.25" x2="490" y1="288.75" y2="288.75"/><line x1="495" x2="495" y1="293.75" y2="242.5"/><line x1="582.5" x2="531.25" y1="288.75" y2="288.75"/><line x1="536.25" x2="536.25" y1="293.75" y2="242.5"/><line x1="572.5" x2="623.75" y1="247.5" y2="247.5"/><line x1="618.75" x2="618.75" y1="242.5" y2="293.75"/><line x1="660" x2="660" y1="242.5" y2="293.75"/><line x1="618.75" x2="618.75" y1="293.75" y2="242.5"/><line x1="701.25" x2="701.25" y1="242.5" y2="293.75"/><line x1="660" x2="660" y1="293.75" y2="242.5"/><line x1="747.5" x2="696.25" y1="288.75" y2="288.75"/><line x1="701.25" x2="701.25" y1="293.75" y2="242.5"/><line x1="737.5" x2="788.75" y1="247.5" y2="247.5"/><line x1="778.75" x2="830" y1="247.5" y2="247.5"/><line x1="830" x2="778.75" y1="288.75" y2="288.75"/><line x1="820" x2="871.25" y1="247.5" y2="247.5"/><line x1="866.25" x2="866.25" y1="242.5" y2="293.75"/><line x1="871.25" x2="820" y1="288.75" y2="288.75"/><line x1="861.25" x2="912.5" y1="247.5" y2="247.5"/><line x1="866.25" x2="866.25" y1="293.75" y2="242.5"/><line x1="948.75" x2="948.75" y1="242.5" y2="293.75"/><line x1="953.75" x2="902.5" y1="288.75" y2="288.75"/><line x1="990" x2="990" y1="242.5" y2="293.75"/><line x1="995" x2="943.75" y1="288.75" y2="288.75"/><line x1="948.75" x2="948.75" y1="293.75" y2="242.5"/><line x1="41.25" x2="41.25" y1="283.75" y2="335"/><line x1="0" x2="0" y1="335" y2="283.75"/><line x1="36.25" x2="87.5" y1="288.75" y2="288.75"/><line x1="41.25" x2="41.25" y1="335" y2="283.75"/><line x1="77.5" x2="128.75" y1="288.75" y2="288.75"/><line x1="128.75" x2="77.5" y1="330" y2="330"/><line x1="118.75" x2="170" y1="288.75" y2="288.75"/><line x1="160" x2="211.25" y1="288.75" y2="288.75"/><line x1="206.25" x2="206.25" y1="283.75" y2="335"/><line x1="211.25" x2="160" y1="330" y2="330"/><line x1="206.25" x2="206.25" y1="335" y2="283.75"/><line x1="288.75" x2="288.75" y1="283.75" y2="335"/><line x1="335" x2="283.75" y1="330" y2="330"/><line x1="288.75" x2="288.75" y1="335" y2="283.75"/><line x1="325" x2="376.25" y1="288.75" y2="288.75"/><line x1="376.25" x2="325" y1="330" y2="330"/><line x1="366.25" x2="417.5" y1="288.75" y2="288.75"/><line x1="412.5" x2="412.5" y1="283.75" y2="335"/><line x1="453.75" x2="453.75" y1="283.75" y2="335"/><line x1="412.5" x2="412.5" y1="335" y2="283.75"/><line x1="500" x2="448.75" y1="330" y2="330"/><line x1="453.75" x2="453.75" y1="335" y2="283.75"/><line x1="490" x2="541.25" y1="288.75" y2="288.75"/><line x1="541.25" x2="490" y1="330" y2="330"/><line x1="531.25" x2="582.5" y1="288.75" y2="288.75"/><line x1="582.5" x2="531.25" y1="330" y2="330"/><line x1="618.75" x2="618.75" y1="283.75" y2="335"/><line x1="623.75" x2="572.5" y1="330" y2="330"/><line x1="660" x2="660" y1="283.75" y2="335"/><line x1="618.75" x2="618.75" y1="335" y2="283.75"/><line x1="706.25" x2="655" y1="330" y2="330"/><line x1="660" x2="660" y1="335" y2="283.75"/><line x1="696.25" x2="747.5" y1="288.75" y2="288.75"/><line x1="747.5" x2="696.25" y1="330" y2="330"/><line x1="783.75" x2="783.75" y1="283.75" y2="335"/><line x1="788.75" x2="737.5" y1="330" y2="330"/><line x1="778.75" x2="830" y1="288.75" y2="288.75"/><line x1="783.75" x2="783.75" y1="335" y2="283.75"/><line x1="820" x2="871.25" y1="288.75" y2="288.75"/><line x1="866.25" x2="866.25" y1="283.75" y2="335"/><line x1="912.5" x2="861.25" y1="330" y2="330"/><line x1="866.25" x2="866.25" y1="335" y2="283.75"/><line x1="902.5" x2="953.75" y1="288.75" y2="288.75"/><line x1="953.75" x2="902.5" y1="330" y2="330"/><line x1="943.75" x2="995" y1="288.75" y2="288.75"/><line x1="990" x2="990" y1="283.75" y2="335"/><line x1="0" x2="0" y1="376.25" y2="325"/><line x1="82.5" x2="82.5" y1="325" y2="376.25"/><line x1="87.5" x2="36.25" y1="371.25" y2="371.25"/><line x1="77.5" x2="128.75" y1="330" y2="330"/><line x1="123.75" x2="123.75" y1="325" y2="376.25"/><line x1="82.5" x2="82.5" y1="376.25" y2="325"/><line x1="170" x2="118.75" y1="371.25" y2="371.25"/><line x1="123.75" x2="123.75" y1="376.25" y2="325"/><line x1="160" x2="211.25" y1="330" y2="330"/><line x1="211.25" x2="160" y1="371.25" y2="371.25"/><line x1="247.5" x2="247.5" y1="325" y2="376.25"/><line x1="252.5" x2="201.25" y1="371.25" y2="371.25"/><line x1="247.5" x2="247.5" y1="376.25" y2="325"/><line x1="283.75" x2="335" y1="330" y2="330"/><line x1="335" x2="283.75" y1="371.25" y2="371.25"/><line x1="325" x2="376.25" y1="330" y2="330"/><line x1="371.25" x2="371.25" y1="325" y2="376.25"/><line x1="376.25" x2="325" y1="371.25" y2="371.25"/><line x1="412.5" x2="412.5" y1="325" y2="376.25"/><line x1="371.25" x2="371.25" y1="376.25" y2="325"/><line x1="458.75" x2="407.5" y1="371.25" y2="371.25"/><line x1="412.5" x2="412.5" y1="376.25" y2="325"/><line x1="448.75" x2="500" y1="330" y2="330"/><line x1="500" x2="448.75" y1="371.25" y2="371.25"/><line x1="490" x2="541.25" y1="330" y2="330"/><line x1="536.25" x2="536.25" y1="325" y2="376.25"/><line x1="531.25" x2="582.5" y1="330" y2="330"/><line x1="536.25" x2="536.25" y1="376.25" y2="325"/><line x1="572.5" x2="623.75" y1="330" y2="330"/><line x1="623.75" x2="572.5" y1="371.25" y2="371.25"/><line x1="665" x2="613.75" y1="371.25" y2="371.25"/><line x1="655" x2="706.25" y1="330" y2="330"/><line x1="701.25" x2="701.25" y1="325" y2="376.25"/><line x1="696.25" x2="747.5" y1="330" y2="330"/><line x1="701.25" x2="701.25" y1="376.25" y2="325"/><line x1="737.5" x2="788.75" y1="330" y2="330"/><line x1="788.75" x2="737.5" y1="371.25" y2="371.25"/><line x1="825" x2="825" y1="325" y2="376.25"/><line x1="830" x2="778.75" y1="371.25" y2="371.25"/><line x1="866.25" x2="866.25" y1="325" y2="376.25"/><line x1="825" x2="825" y1="376.25" y2="325"/><line x1="861.25" x2="912.5" y1="330" y2="330"/><line x1="866.25" x2="866.25" y1="376.25" y2="325"/><line x1="902.5" x2="953.75" y1="330" y2="330"/><line x1="948.75" x2="948.75" y1="325" y2="376.25"/><line x1="990" x2="990" y1="325" y2="376.25"/><line x1="948.75" x2="948.75" y1="376.25" y2="325"/><line x1="41.25" x2="41.25" y1="366.25" y2="417.5"/><line x1="0" x2="0" y1="417.5" y2="366.25"/><line x1="36.25" x2="87.5" y1="371.25" y2="371.25"/><line x1="82.5" x2="82.5" y1="366.25" y2="417.5"/><line x1="41.25" x2="41.25" y1="417.5" y2="366.25"/><line x1="82.5" x2="82.5" y1="417.5" y2="366.25"/><line x1="118.75" x2="170" y1="371.25" y2="371.25"/><line x1="160" x2="211.25" y1="371.25" y2="371.25"/><line x1="206.25" x2="206.25" y1="366.25" y2="417.5"/><line x1="201.25" x2="252.5" y1="371.25" y2="371.25"/><line x1="247.5" x2="247.5" y1="366.25" y2="417.5"/><line x1="206.25" x2="206.25" y1="417.5" y2="366.25"/><line x1="247.5" x2="247.5" y1="417.5" y2="366.25"/><line x1="283.75" x2="335" y1="371.25" y2="371.25"/><line x1="335" x2="283.75" y1="412.5" y2="412.5"/><line x1="325" x2="376.25" y1="371.25" y2="371.25"/><line x1="376.25" x2="325" y1="412.5" y2="412.5"/><line x1="412.5" x2="412.5" y1="366.25" y2="417.5"/><line x1="417.5" x2="366.25" y1="412.5" y2="412.5"/><line x1="407.5" x2="458.75" y1="371.25" y2="371.25"/><line x1="453.75" x2="453.75" y1="366.25" y2="417.5"/><line x1="412.5" x2="412.5" y1="417.5" y2="366.25"/><line x1="448.75" x2="500" y1="371.25" y2="371.25"/><line x1="453.75" x2="453.75" y1="417.5" y2="366.25"/><line x1="536.25" x2="536.25" y1="366.25" y2="417.5"/><line x1="541.25" x2="490" y1="412.5" y2="412.5"/><line x1="577.5" x2="577.5" y1="366.25" y2="417.5"/><line x1="582.5" x2="531.25" y1="412.5" y2="412.5"/><line x1="536.25" x2="536.25" y1="417.5" y2="366.25"/><line x1="572.5" x2="623.75" y1="371.25" y2="371.25"/><line x1="577.5" x2="577.5" y1="417.5" y2="366.25"/><line x1="613.75" x2="665" y1="371.25" y2="371.25"/><line x1="660" x2="660" y1="366.25" y2="417.5"/><line x1="701.25" x2="701.25" y1="366.25" y2="417.5"/><line x1="660" x2="660" y1="417.5" y2="366.25"/><line x1="742.5" x2="742.5" y1="366.25" y2="417.5"/><line x1="701.25" x2="701.25" y1="417.5" y2="366.25"/><line x1="737.5" x2="788.75" y1="371.25" y2="371.25"/><line x1="788.75" x2="737.5" y1="412.5" y2="412.5"/><line x1="742.5" x2="742.5" y1="417.5" y2="366.25"/><line x1="778.75" x2="830" y1="371.25" y2="371.25"/><line x1="825" x2="825" y1="366.25" y2="417.5"/><line x1="871.25" x2="820" y1="412.5" y2="412.5"/><line x1="825" x2="825" y1="417.5" y2="366.25"/><line x1="907.5" x2="907.5" y1="366.25" y2="417.5"/><line x1="953.75" x2="902.5" y1="412.5" y2="412.5"/><line x1="907.5" x2="907.5" y1="417.5" y2="366.25"/><line x1="990" x2="990" y1="366.25" y2="417.5"/><line x1="41.25" x2="41.25" y1="407.5" y2="458.75"/><line x1="0" x2="0" y1="458.75" y2="407.5"/><line x1="87.5" x2="36.25" y1="453.75" y2="453.75"/><line x1="41.25" x2="41.25" y1="458.75" y2="407.5"/><line x1="123.75" x2="123.75" y1="407.5" y2="458.75"/><line x1="128.75" x2="77.5" y1="453.75" y2="453.75"/><line x1="165" x2="165" y1="407.5" y2="458.75"/><line x1="123.75" x2="123.75" y1="458.75" y2="407.5"/><line x1="206.25" x2="206.25" y1="407.5" y2="458.75"/><line x1="165" x2="165" y1="458.75" y2="407.5"/><line x1="247.5" x2="247.5" y1="407.5" y2="458.75"/><line x1="206.25" x2="206.25" y1="458.75" y2="407.5"/><line x1="293.75" x2="242.5" y1="453.75" y2="453.75"/><line x1="247.5" x2="247.5" y1="458.75" y2="407.5"/><line x1="283.75" x2="335" y1="412.5" y2="412.5"/><line x1="335" x2="283.75" y1="453.75" y2="453.75"/><line x1="325" x2="376.25" y1="412.5" y2="412.5"/><line x1="376.25" x2="325" y1="453.75" y2="453.75"/><line x1="366.25" x2="417.5" y1="412.5" y2="412.5"/><line x1="412.5" x2="412.5" y1="407.5" y2="458.75"/><line x1="453.75" x2="453.75" y1="407.5" y2="458.75"/><line x1="412.5" x2="412.5" y1="458.75" y2="407.5"/><line x1="500" x2="448.75" y1="453.75" y2="453.75"/><line x1="453.75" x2="453.75" y1="458.75" y2="407.5"/><line x1="490" x2="541.25" y1="412.5" y2="412.5"/><line x1="541.25" x2="490" y1="453.75" y2="453.75"/><line x1="531.25" x2="582.5" y1="412.5" y2="412.5"/><line x1="582.5" x2="531.25" y1="453.75" y2="453.75"/><line x1="618.75" x2="618.75" y1="407.5" y2="458.75"/><line x1="623.75" x2="572.5" y1="453.75" y2="453.75"/><line x1="618.75" x2="618.75" y1="458.75" y2="407.5"/><line x1="701.25" x2="701.25" y1="407.5" y2="458.75"/><line x1="747.5" x2="696.25" y1="453.75" y2="453.75"/><line x1="701.25" x2="701.25" y1="458.75" y2="407.5"/><line x1="737.5" x2="788.75" y1="412.5" y2="412.5"/><line x1="783.75" x2="783.75" y1="407.5" y2="458.75"/><line x1="783.75" x2="783.75" y1="458.75" y2="407.5"/><line x1="820" x2="871.25" y1="412.5" y2="412.5"/><line x1="871.25" x2="820" y1="453.75" y2="453.75"/><line x1="912.5" x2="861.25" y1="453.75" y2="453.75"/><line x1="902.5" x2="953.75" y1="412.5" y2="412.5"/><line x1="953.75" x2="902.5" y1="453.75" y2="453.75"/><line x1="990" x2="990" y1="407.5" y2="458.75"/><line x1="995" x2="943.75" y1="453.75" y2="453.75"/><line x1="41.25" x2="41.25" y1="448.75" y2="500"/><line x1="0" x2="0" y1="500" y2="448.75"/><line x1="36.25" x2="87.5" y1="453.75" y2="453.75"/><line x1="41.25" x2="41.25" y1="500" y2="448.75"/><line x1="77.5" x2="128.75" y1="453.75" y2="453.75"/><line x1="123.75" x2="123.75" y1="448.75" y2="500"/><line x1="165" x2="165" y1="448.75" y2="500"/><line x1="123.75" x2="123.75" y1="500" y2="448.75"/><line x1="206.25" x2="206.25" y1="448.75" y2="500"/><line x1="165" x2="165" y1="500" y2="448.75"/><line x1="206.25" x2="206.25" y1="500" y2="448.75"/><line x1="242.5" x2="293.75" y1="453.75" y2="453.75"/><line x1="288.75" x2="288.75" y1="448.75" y2="500"/><line x1="293.75" x2="242.5" y1="495" y2="495"/><line x1="283.75" x2="335" y1="453.75" y2="453.75"/><line x1="288.75" x2="288.75" y1="500" y2="448.75"/><line x1="325" x2="376.25" y1="453.75" y2="453.75"/><line x1="371.25" x2="371.25" y1="448.75" y2="500"/><line x1="412.5" x2="412.5" y1="448.75" y2="500"/><line x1="371.25" x2="371.25" y1="500" y2="448.75"/><line x1="458.75" x2="407.5" y1="495" y2="495"/><line x1="412.5" x2="412.5" y1="500" y2="448.75"/><line x1="448.75" x2="500" y1="453.75" y2="453.75"/><line x1="500" x2="448.75" y1="495" y2="495"/><line x1="490" x2="541.25" y1="453.75" y2="453.75"/><line x1="536.25" x2="536.25" y1="448.75" y2="500"/><line x1="531.25" x2="582.5" y1="453.75" y2="453.75"/><line x1="536.25" x2="536.25" y1="500" y2="448.75"/><line x1="572.5" x2="623.75" y1="453.75" y2="453.75"/><line x1="623.75" x2="572.5" y1="495" y2="495"/><line x1="660" x2="660" y1="448.75" y2="500"/><line x1="665" x2="613.75" y1="495" y2="495"/><line x1="706.25" x2="655" y1="495" y2="495"/><line x1="660" x2="660" y1="500" y2="448.75"/><line x1="696.25" x2="747.5" y1="453.75" y2="453.75"/><line x1="742.5" x2="742.5" y1="448.75" y2="500"/><line x1="783.75" x2="783.75" y1="448.75" y2="500"/><line x1="742.5" x2="742.5" y1="500" y2="448.75"/><line x1="825" x2="825" y1="448.75" y2="500"/><line x1="783.75" x2="783.75" y1="500" y2="448.75"/><line x1="820" x2="871.25" y1="453.75" y2="453.75"/><line x1="825" x2="825" y1="500" y2="448.75"/><line x1="861.25" x2="912.5" y1="453.75" y2="453.75"/><line x1="907.5" x2="907.5" y1="448.75" y2="500"/><line x1="912.5" x2="861.25" y1="495" y2="495"/><line x1="902.5" x2="953.75" y1="453.75" y2="453.75"/><line x1="907.5" x2="907.5" y1="500" y2="448.75"/><line x1="943.75" x2="995" y1="453.75" y2="453.75"/><line x1="990" x2="990" y1="448.75" y2="500"/><line x1="46.25" x2="-5" y1="536.25" y2="536.25"/><line x1="0" x2="0" y1="541.25" y2="490"/><line x1="82.5" x2="82.5" y1="490" y2="541.25"/><line x1="87.5" x2="36.25" y1="536.25" y2="536.25"/><line x1="128.75" x2="77.5" y1="536.25" y2="536.25"/><line x1="82.5" x2="82.5" y1="541.25" y2="490"/><line x1="165" x2="165" y1="490" y2="541.25"/><line x1="170" x2="118.75" y1="536.25" y2="536.25"/><line x1="165" x2="165" y1="541.25" y2="490"/><line x1="242.5" x2="293.75" y1="495" y2="495"/><line x1="288.75" x2="288.75" y1="490" y2="541.25"/><line x1="330" x2="330" y1="490" y2="541.25"/><line x1="288.75" x2="288.75" y1="541.25" y2="490"/><line x1="371.25" x2="371.25" y1="490" y2="541.25"/><line x1="330" x2="330" y1="541.25" y2="490"/><line x1="417.5" x2="366.25" y1="536.25" y2="536.25"/><line x1="371.25" x2="371.25" y1="541.25" y2="490"/><line x1="407.5" x2="458.75" y1="495" y2="495"/><line x1="453.75" x2="453.75" y1="490" y2="541.25"/><line x1="448.75" x2="500" y1="495" y2="495"/><line x1="453.75" x2="453.75" y1="541.25" y2="490"/><line x1="536.25" x2="536.25" y1="490" y2="541.25"/><line x1="541.25" x2="490" y1="536.25" y2="536.25"/><line x1="577.5" x2="577.5" y1="490" y2="541.25"/><line x1="536.25" x2="536.25" y1="541.25" y2="490"/><line x1="572.5" x2="623.75" y1="495" y2="495"/><line x1="623.75" x2="572.5" y1="536.25" y2="536.25"/><line x1="577.5" x2="577.5" y1="541.25" y2="490"/><line x1="613.75" x2="665" y1="495" y2="495"/><line x1="665" x2="613.75" y1="536.25" y2="536.25"/><line x1="655" x2="706.25" y1="495" y2="495"/><line x1="747.5" x2="696.25" y1="536.25" y2="536.25"/><line x1="783.75" x2="783.75" y1="490" y2="541.25"/><line x1="788.75" x2="737.5" y1="536.25" y2="536.25"/><line x1="830" x2="778.75" y1="536.25" y2="536.25"/><line x1="783.75" x2="783.75" y1="541.25" y2="490"/><line x1="866.25" x2="866.25" y1="490" y2="541.25"/><line x1="861.25" x2="912.5" y1="495" y2="495"/><line x1="866.25" x2="866.25" y1="541.25" y2="490"/><line x1="948.75" x2="948.75" y1="490" y2="541.25"/><line x1="953.75" x2="902.5" y1="536.25" y2="536.25"/><line x1="990" x2="990" y1="490" y2="541.25"/><line x1="948.75" x2="948.75" y1="541.25" y2="490"/><line x1="-5" x2="46.25" y1="536.25" y2="536.25"/><line x1="0" x2="0" y1="582.5" y2="531.25"/><line x1="36.25" x2="87.5" y1="536.25" y2="536.25"/><line x1="87.5" x2="36.25" y1="577.5" y2="577.5"/><line x1="77.5" x2="128.75" y1="536.25" y2="536.25"/><line x1="123.75" x2="123.75" y1="531.25" y2="582.5"/><line x1="118.75" x2="170" y1="536.25" y2="536.25"/><line x1="165" x2="165" y1="531.25" y2="582.5"/><line x1="123.75" x2="123.75" y1="582.5" y2="531.25"/><line x1="206.25" x2="206.25" y1="531.25" y2="582.5"/><line x1="165" x2="165" y1="582.5" y2="531.25"/><line x1="247.5" x2="247.5" y1="531.25" y2="582.5"/><line x1="252.5" x2="201.25" y1="577.5" y2="577.5"/><line x1="206.25" x2="206.25" y1="582.5" y2="531.25"/><line x1="293.75" x2="242.5" y1="577.5" y2="577.5"/><line x1="247.5" x2="247.5" y1="582.5" y2="531.25"/><line x1="330" x2="330" y1="531.25" y2="582.5"/><line x1="376.25" x2="325" y1="577.5" y2="577.5"/><line x1="330" x2="330" y1="582.5" y2="531.25"/><line x1="366.25" x2="417.5" y1="536.25" y2="536.25"/><line x1="412.5" x2="412.5" y1="531.25" y2="582.5"/><line x1="458.75" x2="407.5" y1="577.5" y2="577.5"/><line x1="412.5" x2="412.5" y1="582.5" y2="531.25"/><line x1="495" x2="495" y1="531.25" y2="582.5"/><line x1="490" x2="541.25" y1="536.25" y2="536.25"/><line x1="495" x2="495" y1="582.5" y2="531.25"/><line x1="577.5" x2="577.5" y1="531.25" y2="582.5"/><line x1="572.5" x2="623.75" y1="536.25" y2="536.25"/><line x1="577.5" x2="577.5" y1="582.5" y2="531.25"/><line x1="613.75" x2="665" y1="536.25" y2="536.25"/><line x1="665" x2="613.75" y1="577.5" y2="577.5"/><line x1="706.25" x2="655" y1="577.5" y2="577.5"/><line x1="696.25" x2="747.5" y1="536.25" y2="536.25"/><line x1="747.5" x2="696.25" y1="577.5" y2="577.5"/><line x1="737.5" x2="788.75" y1="536.25" y2="536.25"/><line x1="788.75" x2="737.5" y1="577.5" y2="577.5"/><line x1="778.75" x2="830" y1="536.25" y2="536.25"/><line x1="825" x2="825" y1="531.25" y2="582.5"/><line x1="866.25" x2="866.25" y1="531.25" y2="582.5"/><line x1="871.25" x2="820" y1="577.5" y2="577.5"/><line x1="825" x2="825" y1="582.5" y2="531.25"/><line x1="907.5" x2="907.5" y1="531.25" y2="582.5"/><line x1="866.25" x2="866.25" y1="582.5" y2="531.25"/><line x1="902.5" x2="953.75" y1="536.25" y2="536.25"/><line x1="948.75" x2="948.75" y1="531.25" y2="582.5"/><line x1="907.5" x2="907.5" y1="582.5" y2="531.25"/><line x1="990" x2="990" y1="531.25" y2="582.5"/><line x1="948.75" x2="948.75" y1="582.5" y2="531.25"/><line x1="0" x2="0" y1="623.75" y2="572.5"/><line x1="36.25" x2="87.5" y1="577.5" y2="577.5"/><line x1="82.5" x2="82.5" y1="572.5" y2="623.75"/><line x1="128.75" x2="77.5" y1="618.75" y2="618.75"/><line x1="82.5" x2="82.5" y1="623.75" y2="572.5"/><line x1="165" x2="165" y1="572.5" y2="623.75"/><line x1="170" x2="118.75" y1="618.75" y2="618.75"/><line x1="211.25" x2="160" y1="618.75" y2="618.75"/><line x1="165" x2="165" y1="623.75" y2="572.5"/><line x1="201.25" x2="252.5" y1="577.5" y2="577.5"/><line x1="252.5" x2="201.25" y1="618.75" y2="618.75"/><line x1="242.5" x2="293.75" y1="577.5" y2="577.5"/><line x1="288.75" x2="288.75" y1="572.5" y2="623.75"/><line x1="335" x2="283.75" y1="618.75" y2="618.75"/><line x1="288.75" x2="288.75" y1="623.75" y2="572.5"/><line x1="325" x2="376.25" y1="577.5" y2="577.5"/><line x1="371.25" x2="371.25" y1="572.5" y2="623.75"/><line x1="376.25" x2="325" y1="618.75" y2="618.75"/><line x1="417.5" x2="366.25" y1="618.75" y2="618.75"/><line x1="371.25" x2="371.25" y1="623.75" y2="572.5"/><line x1="407.5" x2="458.75" y1="577.5" y2="577.5"/><line x1="495" x2="495" y1="572.5" y2="623.75"/><line x1="500" x2="448.75" y1="618.75" y2="618.75"/><line x1="536.25" x2="536.25" y1="572.5" y2="623.75"/><line x1="495" x2="495" y1="623.75" y2="572.5"/><line x1="577.5" x2="577.5" y1="572.5" y2="623.75"/><line x1="582.5" x2="531.25" y1="618.75" y2="618.75"/><line x1="536.25" x2="536.25" y1="623.75" y2="572.5"/><line x1="623.75" x2="572.5" y1="618.75" y2="618.75"/><line x1="577.5" x2="577.5" y1="623.75" y2="572.5"/><line x1="613.75" x2="665" y1="577.5" y2="577.5"/><line x1="660" x2="660" y1="572.5" y2="623.75"/><line x1="655" x2="706.25" y1="577.5" y2="577.5"/><line x1="660" x2="660" y1="623.75" y2="572.5"/><line x1="696.25" x2="747.5" y1="577.5" y2="577.5"/><line x1="747.5" x2="696.25" y1="618.75" y2="618.75"/><line x1="737.5" x2="788.75" y1="577.5" y2="577.5"/><line x1="783.75" x2="783.75" y1="572.5" y2="623.75"/><line x1="830" x2="778.75" y1="618.75" y2="618.75"/><line x1="783.75" x2="783.75" y1="623.75" y2="572.5"/><line x1="820" x2="871.25" y1="577.5" y2="577.5"/><line x1="866.25" x2="866.25" y1="572.5" y2="623.75"/><line x1="907.5" x2="907.5" y1="572.5" y2="623.75"/><line x1="866.25" x2="866.25" y1="623.75" y2="572.5"/><line x1="948.75" x2="948.75" y1="572.5" y2="623.75"/><line x1="907.5" x2="907.5" y1="623.75" y2="572.5"/><line x1="990" x2="990" y1="572.5" y2="623.75"/><line x1="948.75" x2="948.75" y1="623.75" y2="572.5"/><line x1="41.25" x2="41.25" y1="613.75" y2="665"/><line x1="0" x2="0" y1="665" y2="613.75"/><line x1="82.5" x2="82.5" y1="613.75" y2="665"/><line x1="41.25" x2="41.25" y1="665" y2="613.75"/><line x1="77.5" x2="128.75" y1="618.75" y2="618.75"/><line x1="82.5" x2="82.5" y1="665" y2="613.75"/><line x1="118.75" x2="170" y1="618.75" y2="618.75"/><line x1="170" x2="118.75" y1="660" y2="660"/><line x1="160" x2="211.25" y1="618.75" y2="618.75"/><line x1="211.25" x2="160" y1="660" y2="660"/><line x1="201.25" x2="252.5" y1="618.75" y2="618.75"/><line x1="247.5" x2="247.5" y1="613.75" y2="665"/><line x1="293.75" x2="242.5" y1="660" y2="660"/><line x1="247.5" x2="247.5" y1="665" y2="613.75"/><line x1="283.75" x2="335" y1="618.75" y2="618.75"/><line x1="335" x2="283.75" y1="660" y2="660"/><line x1="325" x2="376.25" y1="618.75" y2="618.75"/><line x1="376.25" x2="325" y1="660" y2="660"/><line x1="366.25" x2="417.5" y1="618.75" y2="618.75"/><line x1="412.5" x2="412.5" y1="613.75" y2="665"/><line x1="453.75" x2="453.75" y1="613.75" y2="665"/><line x1="412.5" x2="412.5" y1="665" y2="613.75"/><line x1="448.75" x2="500" y1="618.75" y2="618.75"/><line x1="495" x2="495" y1="613.75" y2="665"/><line x1="453.75" x2="453.75" y1="665" y2="613.75"/><line x1="536.25" x2="536.25" y1="613.75" y2="665"/><line x1="495" x2="495" y1="665" y2="613.75"/><line x1="531.25" x2="582.5" y1="618.75" y2="618.75"/><line x1="536.25" x2="536.25" y1="665" y2="613.75"/><line x1="572.5" x2="623.75" y1="618.75" y2="618.75"/><line x1="618.75" x2="618.75" y1="613.75" y2="665"/><line x1="665" x2="613.75" y1="660" y2="660"/><line x1="618.75" x2="618.75" y1="665" y2="613.75"/><line x1="701.25" x2="701.25" y1="613.75" y2="665"/><line x1="706.25" x2="655" y1="660" y2="660"/><line x1="696.25" x2="747.5" y1="618.75" y2="618.75"/><line x1="701.25" x2="701.25" y1="665" y2="613.75"/><line x1="783.75" x2="783.75" y1="613.75" y2="665"/><line x1="788.75" x2="737.5" y1="660" y2="660"/><line x1="778.75" x2="830" y1="618.75" y2="618.75"/><line x1="825" x2="825" y1="613.75" y2="665"/><line x1="783.75" x2="783.75" y1="665" y2="613.75"/><line x1="866.25" x2="866.25" y1="613.75" y2="665"/><line x1="825" x2="825" y1="665" y2="613.75"/><line x1="912.5" x2="861.25" y1="660" y2="660"/><line x1="866.25" x2="866.25" y1="665" y2="613.75"/><line x1="948.75" x2="948.75" y1="613.75" y2="665"/><line x1="990" x2="990" y1="613.75" y2="665"/><line x1="948.75" x2="948.75" y1="665" y2="613.75"/><line x1="41.25" x2="41.25" y1="655" y2="706.25"/><line x1="0" x2="0" y1="706.25" y2="655"/><line x1="82.5" x2="82.5" y1="655" y2="706.25"/><line x1="41.25" x2="41.25" y1="706.25" y2="655"/><line x1="128.75" x2="77.5" y1="701.25" y2="701.25"/><line x1="82.5" x2="82.5" y1="706.25" y2="655"/><line x1="118.75" x2="170" y1="660" y2="660"/><line x1="165" x2="165" y1="655" y2="706.25"/><line x1="160" x2="211.25" y1="660" y2="660"/><line x1="206.25" x2="206.25" y1="655" y2="706.25"/><line x1="165" x2="165" y1="706.25" y2="655"/><line x1="252.5" x2="201.25" y1="701.25" y2="701.25"/><line x1="206.25" x2="206.25" y1="706.25" y2="655"/><line x1="242.5" x2="293.75" y1="660" y2="660"/><line x1="293.75" x2="242.5" y1="701.25" y2="701.25"/><line x1="283.75" x2="335" y1="660" y2="660"/><line x1="335" x2="283.75" y1="701.25" y2="701.25"/><line x1="325" x2="376.25" y1="660" y2="660"/><line x1="376.25" x2="325" y1="701.25" y2="701.25"/><line x1="412.5" x2="412.5" y1="655" y2="706.25"/><line x1="417.5" x2="366.25" y1="701.25" y2="701.25"/><line x1="458.75" x2="407.5" y1="701.25" y2="701.25"/><line x1="412.5" x2="412.5" y1="706.25" y2="655"/><line x1="495" x2="495" y1="655" y2="706.25"/><line x1="536.25" x2="536.25" y1="655" y2="706.25"/><line x1="495" x2="495" y1="706.25" y2="655"/><line x1="577.5" x2="577.5" y1="655" y2="706.25"/><line x1="536.25" x2="536.25" y1="706.25" y2="655"/><line x1="577.5" x2="577.5" y1="706.25" y2="655"/><line x1="613.75" x2="665" y1="660" y2="660"/><line x1="660" x2="660" y1="655" y2="706.25"/><line x1="655" x2="706.25" y1="660" y2="660"/><line x1="660" x2="660" y1="706.25" y2="655"/><line x1="742.5" x2="742.5" y1="655" y2="706.25"/><line x1="747.5" x2="696.25" y1="701.25" y2="701.25"/><line x1="737.5" x2="788.75" y1="660" y2="660"/><line x1="788.75" x2="737.5" y1="701.25" y2="701.25"/><line x1="742.5" x2="742.5" y1="706.25" y2="655"/><line x1="825" x2="825" y1="655" y2="706.25"/><line x1="871.25" x2="820" y1="701.25" y2="701.25"/><line x1="825" x2="825" y1="706.25" y2="655"/><line x1="861.25" x2="912.5" y1="660" y2="660"/><line x1="912.5" x2="861.25" y1="701.25" y2="701.25"/><line x1="948.75" x2="948.75" y1="655" y2="706.25"/><line x1="953.75" x2="902.5" y1="701.25" y2="701.25"/><line x1="990" x2="990" y1="655" y2="706.25"/><line x1="948.75" x2="948.75" y1="706.25" y2="655"/><line x1="41.25" x2="41.25" y1="696.25" y2="747.5"/><line x1="0" x2="0" y1="747.5" y2="696.25"/><line x1="87.5" x2="36.25" y1="742.5" y2="742.5"/><line x1="41.25" x2="41.25" y1="747.5" y2="696.25"/><line x1="77.5" x2="128.75" y1="701.25" y2="701.25"/><line x1="123.75" x2="123.75" y1="696.25" y2="747.5"/><line x1="165" x2="165" y1="696.25" y2="747.5"/><line x1="123.75" x2="123.75" y1="747.5" y2="696.25"/><line x1="211.25" x2="160" y1="742.5" y2="742.5"/><line x1="165" x2="165" y1="747.5" y2="696.25"/><line x1="201.25" x2="252.5" y1="701.25" y2="701.25"/><line x1="247.5" x2="247.5" y1="696.25" y2="747.5"/><line x1="242.5" x2="293.75" y1="701.25" y2="701.25"/><line x1="247.5" x2="247.5" y1="747.5" y2="696.25"/><line x1="283.75" x2="335" y1="701.25" y2="701.25"/><line x1="335" x2="283.75" y1="742.5" y2="742.5"/><line x1="325" x2="376.25" y1="701.25" y2="701.25"/><line x1="371.25" x2="371.25" y1="696.25" y2="747.5"/><line x1="366.25" x2="417.5" y1="701.25" y2="701.25"/><line x1="371.25" x2="371.25" y1="747.5" y2="696.25"/><line x1="407.5" x2="458.75" y1="701.25" y2="701.25"/><line x1="458.75" x2="407.5" y1="742.5" y2="742.5"/><line x1="495" x2="495" y1="696.25" y2="747.5"/><line x1="500" x2="448.75" y1="742.5" y2="742.5"/><line x1="536.25" x2="536.25" y1="696.25" y2="747.5"/><line x1="495" x2="495" y1="747.5" y2="696.25"/><line x1="577.5" x2="577.5" y1="696.25" y2="747.5"/><line x1="536.25" x2="536.25" y1="747.5" y2="696.25"/><line x1="618.75" x2="618.75" y1="696.25" y2="747.5"/><line x1="577.5" x2="577.5" y1="747.5" y2="696.25"/><line x1="618.75" x2="618.75" y1="747.5" y2="696.25"/><line x1="701.25" x2="701.25" y1="696.25" y2="747.5"/><line x1="696.25" x2="747.5" y1="701.25" y2="701.25"/><line x1="701.25" x2="701.25" y1="747.5" y2="696.25"/><line x1="737.5" x2="788.75" y1="701.25" y2="701.25"/><line x1="788.75" x2="737.5" y1="742.5" y2="742.5"/><line x1="825" x2="825" y1="696.25" y2="747.5"/><line x1="820" x2="871.25" y1="701.25" y2="701.25"/><line x1="825" x2="825" y1="747.5" y2="696.25"/><line x1="861.25" x2="912.5" y1="701.25" y2="701.25"/><line x1="912.5" x2="861.25" y1="742.5" y2="742.5"/><line x1="902.5" x2="953.75" y1="701.25" y2="701.25"/><line x1="948.75" x2="948.75" y1="696.25" y2="747.5"/><line x1="990" x2="990" y1="696.25" y2="747.5"/><line x1="948.75" x2="948.75" y1="747.5" y2="696.25"/><line x1="41.25" x2="41.25" y1="737.5" y2="788.75"/><line x1="46.25" x2="-5" y1="783.75" y2="783.75"/><line x1="0" x2="0" y1="788.75" y2="737.5"/><line x1="36.25" x2="87.5" y1="742.5" y2="742.5"/><line x1="41.25" x2="41.25" y1="788.75" y2="737.5"/><line x1="123.75" x2="123.75" y1="737.5" y2="788.75"/><line x1="170" x2="118.75" y1="783.75" y2="783.75"/><line x1="123.75" x2="123.75" y1="788.75" y2="737.5"/><line x1="160" x2="211.25" y1="742.5" y2="742.5"/><line x1="206.25" x2="206.25" y1="737.5" y2="788.75"/><line x1="252.5" x2="201.25" y1="783.75" y2="783.75"/><line x1="206.25" x2="206.25" y1="788.75" y2="737.5"/><line x1="293.75" x2="242.5" y1="783.75" y2="783.75"/><line x1="283.75" x2="335" y1="742.5" y2="742.5"/><line x1="330" x2="330" y1="737.5" y2="788.75"/><line x1="376.25" x2="325" y1="783.75" y2="783.75"/><line x1="330" x2="330" y1="788.75" y2="737.5"/><line x1="412.5" x2="412.5" y1="737.5" y2="788.75"/><line x1="417.5" x2="366.25" y1="783.75" y2="783.75"/><line x1="407.5" x2="458.75" y1="742.5" y2="742.5"/><line x1="412.5" x2="412.5" y1="788.75" y2="737.5"/><line x1="448.75" x2="500" y1="742.5" y2="742.5"/><line x1="495" x2="495" y1="737.5" y2="788.75"/><line x1="500" x2="448.75" y1="783.75" y2="783.75"/><line x1="541.25" x2="490" y1="783.75" y2="783.75"/><line x1="495" x2="495" y1="788.75" y2="737.5"/><line x1="577.5" x2="577.5" y1="737.5" y2="788.75"/><line x1="618.75" x2="618.75" y1="737.5" y2="788.75"/><line x1="577.5" x2="577.5" y1="788.75" y2="737.5"/><line x1="660" x2="660" y1="737.5" y2="788.75"/><line x1="618.75" x2="618.75" y1="788.75" y2="737.5"/><line x1="706.25" x2="655" y1="783.75" y2="783.75"/><line x1="660" x2="660" y1="788.75" y2="737.5"/><line x1="742.5" x2="742.5" y1="737.5" y2="788.75"/><line x1="747.5" x2="696.25" y1="783.75" y2="783.75"/><line x1="737.5" x2="788.75" y1="742.5" y2="742.5"/><line x1="742.5" x2="742.5" y1="788.75" y2="737.5"/><line x1="825" x2="825" y1="737.5" y2="788.75"/><line x1="830" x2="778.75" y1="783.75" y2="783.75"/><line x1="866.25" x2="866.25" y1="737.5" y2="788.75"/><line x1="825" x2="825" y1="788.75" y2="737.5"/><line x1="861.25" x2="912.5" y1="742.5" y2="742.5"/><line x1="907.5" x2="907.5" y1="737.5" y2="788.75"/><line x1="866.25" x2="866.25" y1="788.75" y2="737.5"/><line x1="948.75" x2="948.75" y1="737.5" y2="788.75"/><line x1="907.5" x2="907.5" y1="788.75" y2="737.5"/><line x1="990" x2="990" y1="737.5" y2="788.75"/><line x1="948.75" x2="948.75" y1="788.75" y2="737.5"/><line x1="-5" x2="46.25" y1="783.75" y2="783.75"/><line x1="0" x2="0" y1="830" y2="778.75"/><line x1="82.5" x2="82.5" y1="778.75" y2="830"/><line x1="87.5" x2="36.25" y1="825" y2="825"/><line x1="123.75" x2="123.75" y1="778.75" y2="830"/><line x1="82.5" x2="82.5" y1="830" y2="778.75"/><line x1="118.75" x2="170" y1="783.75" y2="783.75"/><line x1="165" x2="165" y1="778.75" y2="830"/><line x1="123.75" x2="123.75" y1="830" y2="778.75"/><line x1="211.25" x2="160" y1="825" y2="825"/><line x1="165" x2="165" y1="830" y2="778.75"/><line x1="201.25" x2="252.5" y1="783.75" y2="783.75"/><line x1="252.5" x2="201.25" y1="825" y2="825"/><line x1="242.5" x2="293.75" y1="783.75" y2="783.75"/><line x1="288.75" x2="288.75" y1="778.75" y2="830"/><line x1="335" x2="283.75" y1="825" y2="825"/><line x1="288.75" x2="288.75" y1="830" y2="778.75"/><line x1="325" x2="376.25" y1="783.75" y2="783.75"/><line x1="371.25" x2="371.25" y1="778.75" y2="830"/><line x1="366.25" x2="417.5" y1="783.75" y2="783.75"/><line x1="417.5" x2="366.25" y1="825" y2="825"/><line x1="371.25" x2="371.25" y1="830" y2="778.75"/><line x1="453.75" x2="453.75" y1="778.75" y2="830"/><line x1="448.75" x2="500" y1="783.75" y2="783.75"/><line x1="453.75" x2="453.75" y1="830" y2="778.75"/><line x1="490" x2="541.25" y1="783.75" y2="783.75"/><line x1="536.25" x2="536.25" y1="778.75" y2="830"/><line x1="577.5" x2="577.5" y1="778.75" y2="830"/><line x1="582.5" x2="531.25" y1="825" y2="825"/><line x1="536.25" x2="536.25" y1="830" y2="778.75"/><line x1="618.75" x2="618.75" y1="778.75" y2="830"/><line x1="577.5" x2="577.5" y1="830" y2="778.75"/><line x1="660" x2="660" y1="778.75" y2="830"/><line x1="618.75" x2="618.75" y1="830" y2="778.75"/><line x1="655" x2="706.25" y1="783.75" y2="783.75"/><line x1="660" x2="660" y1="830" y2="778.75"/><line x1="696.25" x2="747.5" y1="783.75" y2="783.75"/><line x1="747.5" x2="696.25" y1="825" y2="825"/><line x1="783.75" x2="783.75" y1="778.75" y2="830"/><line x1="788.75" x2="737.5" y1="825" y2="825"/><line x1="778.75" x2="830" y1="783.75" y2="783.75"/><line x1="783.75" x2="783.75" y1="830" y2="778.75"/><line x1="866.25" x2="866.25" y1="778.75" y2="830"/><line x1="871.25" x2="820" y1="825" y2="825"/><line x1="912.5" x2="861.25" y1="825" y2="825"/><line x1="866.25" x2="866.25" y1="830" y2="778.75"/><line x1="948.75" x2="948.75" y1="778.75" y2="830"/><line x1="990" x2="990" y1="778.75" y2="830"/><line x1="948.75" x2="948.75" y1="830" y2="778.75"/><line x1="41.25" x2="41.25" y1="820" y2="871.25"/><line x1="0" x2="0" y1="871.25" y2="820"/><line x1="36.25" x2="87.5" y1="825" y2="825"/><line x1="87.5" x2="36.25" y1="866.25" y2="866.25"/><line x1="41.25" x2="41.25" y1="871.25" y2="820"/><line x1="128.75" x2="77.5" y1="866.25" y2="866.25"/><line x1="170" x2="118.75" y1="866.25" y2="866.25"/><line x1="160" x2="211.25" y1="825" y2="825"/><line x1="201.25" x2="252.5" y1="825" y2="825"/><line x1="247.5" x2="247.5" y1="820" y2="871.25"/><line x1="252.5" x2="201.25" y1="866.25" y2="866.25"/><line x1="288.75" x2="288.75" y1="820" y2="871.25"/><line x1="247.5" x2="247.5" y1="871.25" y2="820"/><line x1="283.75" x2="335" y1="825" y2="825"/><line x1="335" x2="283.75" y1="866.25" y2="866.25"/><line x1="288.75" x2="288.75" y1="871.25" y2="820"/><line x1="376.25" x2="325" y1="866.25" y2="866.25"/><line x1="366.25" x2="417.5" y1="825" y2="825"/><line x1="417.5" x2="366.25" y1="866.25" y2="866.25"/><line x1="453.75" x2="453.75" y1="820" y2="871.25"/><line x1="495" x2="495" y1="820" y2="871.25"/><line x1="453.75" x2="453.75" y1="871.25" y2="820"/><line x1="536.25" x2="536.25" y1="820" y2="871.25"/><line x1="495" x2="495" y1="871.25" y2="820"/><line x1="531.25" x2="582.5" y1="825" y2="825"/><line x1="536.25" x2="536.25" y1="871.25" y2="820"/><line x1="618.75" x2="618.75" y1="820" y2="871.25"/><line x1="623.75" x2="572.5" y1="866.25" y2="866.25"/><line x1="660" x2="660" y1="820" y2="871.25"/><line x1="665" x2="613.75" y1="866.25" y2="866.25"/><line x1="618.75" x2="618.75" y1="871.25" y2="820"/><line x1="706.25" x2="655" y1="866.25" y2="866.25"/><line x1="660" x2="660" y1="871.25" y2="820"/><line x1="696.25" x2="747.5" y1="825" y2="825"/><line x1="742.5" x2="742.5" y1="820" y2="871.25"/><line x1="737.5" x2="788.75" y1="825" y2="825"/><line x1="742.5" x2="742.5" y1="871.25" y2="820"/><line x1="825" x2="825" y1="820" y2="871.25"/><line x1="820" x2="871.25" y1="825" y2="825"/><line x1="825" x2="825" y1="871.25" y2="820"/><line x1="861.25" x2="912.5" y1="825" y2="825"/><line x1="907.5" x2="907.5" y1="820" y2="871.25"/><line x1="948.75" x2="948.75" y1="820" y2="871.25"/><line x1="953.75" x2="902.5" y1="866.25" y2="866.25"/><line x1="907.5" x2="907.5" y1="871.25" y2="820"/><line x1="990" x2="990" y1="820" y2="871.25"/><line x1="948.75" x2="948.75" y1="871.25" y2="820"/><line x1="0" x2="0" y1="912.5" y2="861.25"/><line x1="36.25" x2="87.5" y1="866.25" y2="866.25"/><line x1="87.5" x2="36.25" y1="907.5" y2="907.5"/><line x1="77.5" x2="128.75" y1="866.25" y2="866.25"/><line x1="123.75" x2="123.75" y1="861.25" y2="912.5"/><line x1="118.75" x2="170" y1="866.25" y2="866.25"/><line x1="170" x2="118.75" y1="907.5" y2="907.5"/><line x1="123.75" x2="123.75" y1="912.5" y2="861.25"/><line x1="206.25" x2="206.25" y1="861.25" y2="912.5"/><line x1="211.25" x2="160" y1="907.5" y2="907.5"/><line x1="201.25" x2="252.5" y1="866.25" y2="866.25"/><line x1="206.25" x2="206.25" y1="912.5" y2="861.25"/><line x1="288.75" x2="288.75" y1="861.25" y2="912.5"/><line x1="293.75" x2="242.5" y1="907.5" y2="907.5"/><line x1="283.75" x2="335" y1="866.25" y2="866.25"/><line x1="288.75" x2="288.75" y1="912.5" y2="861.25"/><line x1="325" x2="376.25" y1="866.25" y2="866.25"/><line x1="371.25" x2="371.25" y1="861.25" y2="912.5"/><line x1="366.25" x2="417.5" y1="866.25" y2="866.25"/><line x1="417.5" x2="366.25" y1="907.5" y2="907.5"/><line x1="371.25" x2="371.25" y1="912.5" y2="861.25"/><line x1="453.75" x2="453.75" y1="861.25" y2="912.5"/><line x1="495" x2="495" y1="861.25" y2="912.5"/><line x1="453.75" x2="453.75" y1="912.5" y2="861.25"/><line x1="495" x2="495" y1="912.5" y2="861.25"/><line x1="582.5" x2="531.25" y1="907.5" y2="907.5"/><line x1="572.5" x2="623.75" y1="866.25" y2="866.25"/><line x1="623.75" x2="572.5" y1="907.5" y2="907.5"/><line x1="613.75" x2="665" y1="866.25" y2="866.25"/><line x1="665" x2="613.75" y1="907.5" y2="907.5"/><line x1="655" x2="706.25" y1="866.25" y2="866.25"/><line x1="706.25" x2="655" y1="907.5" y2="907.5"/><line x1="747.5" x2="696.25" y1="907.5" y2="907.5"/><line x1="783.75" x2="783.75" y1="861.25" y2="912.5"/><line x1="788.75" x2="737.5" y1="907.5" y2="907.5"/><line x1="825" x2="825" y1="861.25" y2="912.5"/><line x1="830" x2="778.75" y1="907.5" y2="907.5"/><line x1="783.75" x2="783.75" y1="912.5" y2="861.25"/><line x1="866.25" x2="866.25" y1="861.25" y2="912.5"/><line x1="825" x2="825" y1="912.5" y2="861.25"/><line x1="912.5" x2="861.25" y1="907.5" y2="907.5"/><line x1="866.25" x2="866.25" y1="912.5" y2="861.25"/><line x1="902.5" x2="953.75" y1="866.25" y2="866.25"/><line x1="948.75" x2="948.75" y1="861.25" y2="912.5"/><line x1="990" x2="990" y1="861.25" y2="912.5"/><line x1="948.75" x2="948.75" y1="912.5" y2="861.25"/><line x1="41.25" x2="41.25" y1="902.5" y2="953.75"/><line x1="0" x2="0" y1="953.75" y2="902.5"/><line x1="36.25" x2="87.5" y1="907.5" y2="907.5"/><line x1="82.5" x2="82.5" y1="902.5" y2="953.75"/><line x1="41.25" x2="41.25" y1="953.75" y2="902.5"/><line x1="128.75" x2="77.5" y1="948.75" y2="948.75"/><line x1="82.5" x2="82.5" y1="953.75" y2="902.5"/><line x1="118.75" x2="170" y1="907.5" y2="907.5"/><line x1="170" x2="118.75" y1="948.75" y2="948.75"/><line x1="160" x2="211.25" y1="907.5" y2="907.5"/><line x1="211.25" x2="160" y1="948.75" y2="948.75"/><line x1="247.5" x2="247.5" y1="902.5" y2="953.75"/><line x1="252.5" x2="201.25" y1="948.75" y2="948.75"/><line x1="242.5" x2="293.75" y1="907.5" y2="907.5"/><line x1="247.5" x2="247.5" y1="953.75" y2="902.5"/><line x1="330" x2="330" y1="902.5" y2="953.75"/><line x1="335" x2="283.75" y1="948.75" y2="948.75"/><line x1="376.25" x2="325" y1="948.75" y2="948.75"/><line x1="330" x2="330" y1="953.75" y2="902.5"/><line x1="366.25" x2="417.5" y1="907.5" y2="907.5"/><line x1="412.5" x2="412.5" y1="902.5" y2="953.75"/><line x1="453.75" x2="453.75" y1="902.5" y2="953.75"/><line x1="458.75" x2="407.5" y1="948.75" y2="948.75"/><line x1="412.5" x2="412.5" y1="953.75" y2="902.5"/><line x1="495" x2="495" y1="902.5" y2="953.75"/><line x1="453.75" x2="453.75" y1="953.75" y2="902.5"/><line x1="541.25" x2="490" y1="948.75" y2="948.75"/><line x1="495" x2="495" y1="953.75" y2="902.5"/><line x1="531.25" x2="582.5" y1="907.5" y2="907.5"/><line x1="582.5" x2="531.25" y1="948.75" y2="948.75"/><line x1="572.5" x2="623.75" y1="907.5" y2="907.5"/><line x1="623.75" x2="572.5" y1="948.75" y2="948.75"/><line x1="613.75" x2="665" y1="907.5" y2="907.5"/><line x1="660" x2="660" y1="902.5" y2="953.75"/><line x1="655" x2="706.25" y1="907.5" y2="907.5"/><line x1="660" x2="660" y1="953.75" y2="902.5"/><line x1="696.25" x2="747.5" y1="907.5" y2="907.5"/><line x1="742.5" x2="742.5" y1="902.5" y2="953.75"/><line x1="737.5" x2="788.75" y1="907.5" y2="907.5"/><line x1="742.5" x2="742.5" y1="953.75" y2="902.5"/><line x1="778.75" x2="830" y1="907.5" y2="907.5"/><line x1="825" x2="825" y1="902.5" y2="953.75"/><line x1="866.25" x2="866.25" y1="902.5" y2="953.75"/><line x1="825" x2="825" y1="953.75" y2="902.5"/><line x1="861.25" x2="912.5" y1="907.5" y2="907.5"/><line x1="907.5" x2="907.5" y1="902.5" y2="953.75"/><line x1="866.25" x2="866.25" y1="953.75" y2="902.5"/><line x1="948.75" x2="948.75" y1="902.5" y2="953.75"/><line x1="907.5" x2="907.5" y1="953.75" y2="902.5"/><line x1="990" x2="990" y1="902.5" y2="953.75"/><line x1="948.75" x2="948.75" y1="953.75" y2="902.5"/><line x1="46.25" x2="-5" y1="990" y2="990"/><line x1="0" x2="0" y1="995" y2="943.75"/><line x1="87.5" x2="36.25" y1="990" y2="990"/><line x1="77.5" x2="128.75" y1="948.75" y2="948.75"/><line x1="128.75" x2="77.5" y1="990" y2="990"/><line x1="118.75" x2="170" y1="948.75" y2="948.75"/><line x1="170" x2="118.75" y1="990" y2="990"/><line x1="160" x2="211.25" y1="948.75" y2="948.75"/><line x1="211.25" x2="160" y1="990" y2="990"/><line x1="201.25" x2="252.5" y1="948.75" y2="948.75"/><line x1="252.5" x2="201.25" y1="990" y2="990"/><line x1="288.75" x2="288.75" y1="943.75" y2="995"/><line x1="293.75" x2="242.5" y1="990" y2="990"/><line x1="283.75" x2="335" y1="948.75" y2="948.75"/><line x1="335" x2="283.75" y1="990" y2="990"/><line x1="288.75" x2="288.75" y1="995" y2="943.75"/><line x1="325" x2="376.25" y1="948.75" y2="948.75"/><line x1="376.25" x2="325" y1="990" y2="990"/><line x1="417.5" x2="366.25" y1="990" y2="990"/><line x1="407.5" x2="458.75" y1="948.75" y2="948.75"/><line x1="458.75" x2="407.5" y1="990" y2="990"/><line x1="495" x2="495" y1="943.75" y2="995"/><line x1="500" x2="448.75" y1="990" y2="990"/><line x1="490" x2="541.25" y1="948.75" y2="948.75"/><line x1="541.25" x2="490" y1="990" y2="990"/><line x1="495" x2="495" y1="995" y2="943.75"/><line x1="531.25" x2="582.5" y1="948.75" y2="948.75"/><line x1="582.5" x2="531.25" y1="990" y2="990"/><line x1="572.5" x2="623.75" y1="948.75" y2="948.75"/><line x1="623.75" x2="572.5" y1="990" y2="990"/><line x1="665" x2="613.75" y1="990" y2="990"/><line x1="701.25" x2="701.25" y1="943.75" y2="995"/><line x1="706.25" x2="655" y1="990" y2="990"/><line x1="747.5" x2="696.25" y1="990" y2="990"/><line x1="701.25" x2="701.25" y1="995" y2="943.75"/><line x1="783.75" x2="783.75" y1="943.75" y2="995"/><line x1="788.75" x2="737.5" y1="990" y2="990"/><line x1="830" x2="778.75" y1="990" y2="990"/><line x1="783.75" x2="783.75" y1="995" y2="943.75"/><line x1="866.25" x2="866.25" y1="943.75" y2="995"/><line x1="871.25" x2="820" y1="990" y2="990"/><line x1="912.5" x2="861.25" y1="990" y2="990"/><line x1="866.25" x2="866.25" y1="995" y2="943.75"/><line x1="953.75" x2="902.5" y1="990" y2="990"/><line x1="990" x2="990" y1="943.75" y2="995"/></g></svg>